<?xml version="1.0" encoding="utf-8"?>
<!-- Generator: Adobe Illustrator 16.0.0, SVG Export Plug-In . SVG Version: 6.00 Build 0)  -->
<!DOCTYPE svg PUBLIC "-//W3C//DTD SVG 1.1//EN" "http://www.w3.org/Graphics/SVG/1.1/DTD/svg11.dtd">
<svg version="1.1" id="Layer_1" xmlns="http://www.w3.org/2000/svg" xmlns:xlink="http://www.w3.org/1999/xlink" x="0px" y="0px"
	 width="141.73px" height="141.73px" viewBox="0 0 141.73 141.73" enable-background="new 0 0 141.73 141.73" xml:space="preserve">
<g>
	<path fill="#010101" stroke="#FFFFFF" stroke-width="5" stroke-miterlimit="10" d="M66.141,11.812L66.141,11.812
		c-2.953,0-5.906,0.59-8.858,5.314c-2.362,4.134-5.905,4.134-11.22,4.134c-4.724,0-5.905,3.543-3.543,7.087
		c1.181,1.771,8.858,14.763,10.63,17.716c1.771,2.362,8.858,4.134,14.173,4.134c0.591,0,0.591,0,1.181,0
		c5.315,0,13.583-2.362,12.992-6.496c-0.591-7.677,7.087-17.716,8.268-18.897c1.771-2.362,1.181-7.677-3.544-7.677
		c-1.181,0-2.361,0-3.543,0.591c-1.181,0.59-2.953,1.181-4.725,1.181c-1.181,0-2.361-0.591-2.952-1.771
		C71.455,12.401,68.503,11.812,66.141,11.812L66.141,11.812z"/>
</g>
<path fill="#010101" stroke="#FFFFFF" stroke-width="5" stroke-miterlimit="10" d="M80.314,51.968
	c-4.135,1.771-8.859,2.953-11.812,2.953h-1.181c-1.181,0-6.496,0-11.22-1.771c-25.393,7.677-44.291,33.66-44.291,51.967
	c0,21.851,26.574,24.803,59.054,24.803c32.48,0,59.055-2.952,59.055-24.803C129.92,85.629,108.66,57.873,80.314,51.968z"/>
<g>
	<path fill="#FFFFFF" d="M84.709,81.198l-9.564,1.517c-0.48-1.217-0.912-2.061-1.299-2.532c-0.385-0.472-1.023-0.947-1.915-1.428
		v7.438c5.209,1.39,8.69,2.856,10.438,4.4c2.314,2.075,3.471,4.708,3.471,7.898c0,1.87-0.416,3.585-1.246,5.146
		c-0.832,1.561-1.895,2.864-3.188,3.91c-1.295,1.047-2.67,1.806-4.127,2.277s-3.24,0.75-5.348,0.836v4.859h-3.754v-4.859
		c-2.52-0.223-4.563-0.63-6.132-1.221c-1.568-0.592-2.923-1.41-4.063-2.456c-1.14-1.045-2.018-2.172-2.635-3.381
		c-0.617-1.208-1.08-2.669-1.389-4.384l10.387-1.208c0.309,1.697,0.724,2.923,1.247,3.677c0.522,0.754,1.384,1.423,2.584,2.005
		v-9.085c-3.462-0.961-5.918-1.793-7.366-2.496c-1.449-0.703-2.704-1.831-3.767-3.384c-1.063-1.552-1.594-3.442-1.594-5.673
		c0-3.053,1.067-5.604,3.201-7.654c2.134-2.049,5.309-3.186,9.526-3.409v-2.545h3.754v2.545c3.838,0.24,6.774,1.149,8.805,2.726
		C82.768,76.296,84.092,78.456,84.709,81.198z M68.177,78.627c-1.097,0.361-1.86,0.81-2.288,1.344
		c-0.429,0.534-0.643,1.162-0.643,1.886c0,0.758,0.217,1.417,0.652,1.977c0.435,0.56,1.195,1.028,2.279,1.405V78.627z
		 M71.931,103.952c1.456-0.327,2.524-0.864,3.202-1.612c0.676-0.748,1.016-1.586,1.016-2.515c0-0.809-0.287-1.552-0.859-2.231
		c-0.574-0.679-1.693-1.311-3.358-1.894V103.952z"/>
</g>
</svg>
